# xmcd
#
# Track frame offsets: 
#        150
#        36840
#        74161
#        107035
#        149716
#        172866
#        216028
#        236616
#
# Disc length: 3530 seconds
#
# Revision: 0
# Processed by: cddbd v1.5.1PL0 Copyright (c) Steve Scherf et al.
# Submitted via: ExactAudioCopy v0.95a5
#
DISCID=780dc808
DTITLE=Buddy Guy& Jeff Beck - Ohne filter 1991
DYEAR=1991
DGENRE=Blues
TTITLE0=Sweet home Chicago
TTITLE1=Damn right, I've got the blues
TTITLE2=Mary had a little lamb
TTITLE3=Everything gonna be allright
TTITLE4=The things I used to do
TTITLE5=Come see about me
TTITLE6=There is something on your mind
TTITLE7=Crazy about you
EXTD=
EXTT0=
EXTT1=
EXTT2=
EXTT3=
EXTT4=
EXTT5=
EXTT6=
EXTT7=
PLAYORDER=
